<svg width="116" height="38" viewBox="0 0 116 38" fill="none" xmlns="http://www.w3.org/2000/svg">
<path fill-rule="evenodd" clip-rule="evenodd" d="M114.078 23.4013C112.421 23.4013 111.195 22.989 111.195 20.2866V14.1822H116V9.41069H111.17V3.32107L104.543 3.96906V8.04844C104.539 8.40854 104.376 8.75281 104.09 9.00746C103.803 9.2621 103.416 9.40686 103.011 9.41069H101.752V14.1822H104.543V21.5457C104.543 27.6648 108.876 28.0109 111.999 28.0109C113.338 28.0282 114.674 27.8946 115.975 27.6133V23.3424C115.404 23.3866 114.691 23.4013 114.053 23.4013H114.078ZM59.487 20.2866V14.1822H64.2917V9.41069H59.487V3.32107L52.8598 3.96906V8.04844C52.8555 8.40854 52.6927 8.75281 52.4062 9.00746C52.1197 9.2621 51.7324 9.40686 51.3273 9.41069H50.0516V14.1822H52.8432V21.5457C52.8432 27.6648 57.1757 28.0109 60.2988 28.0109C61.6378 28.0282 62.9739 27.8946 64.2751 27.6133V23.3424C63.7035 23.3866 62.9911 23.4013 62.3532 23.4013C60.6964 23.4013 59.4704 22.989 59.4704 20.2866H59.487ZM38.1475 7.81281V8.0558C38.139 8.41403 37.9746 8.75537 37.6888 9.00804C37.403 9.26072 37.0181 9.40505 36.615 9.41069H35.4056V14.1822H38.1475V27.7384H44.8327V14.1822H47.7983V9.41069H44.7913V7.46672C44.7913 5.33867 46.183 5.14722 47.6741 5.14722C48.1871 5.12902 48.7003 5.17614 49.1983 5.28713V1.19302C48.2165 0.835547 47.1605 0.66739 46.1001 0.699665C42.7865 0.699665 38.1475 1.1562 38.1475 7.81281ZM92.3328 27.7384H99.573V9.41069H92.3576L92.3328 27.7384ZM96.1848 0.552394C95.3743 0.584124 94.5922 0.826724 93.9354 1.25008C93.2787 1.67344 92.7762 2.25891 92.4905 2.93383C92.2048 3.60876 92.1483 4.34341 92.3281 5.0466C92.5079 5.7498 92.9161 6.39057 93.502 6.8894C94.0878 7.38822 94.8256 7.72313 95.6237 7.85255C96.4218 7.98197 97.2451 7.90021 97.9914 7.61741C98.7377 7.33462 99.3741 6.86324 99.8217 6.26178C100.269 5.66032 100.508 4.95527 100.509 4.23414C100.51 3.73671 100.397 3.24434 100.177 2.78675C99.9578 2.32916 99.6363 1.91585 99.2322 1.57176C98.828 1.22768 98.3497 0.95995 97.8259 0.784749C97.3022 0.609549 96.7439 0.530507 96.1848 0.552394ZM78.5069 23.2541C77.8249 23.2595 77.1488 23.1418 76.5196 22.9081C75.8903 22.6743 75.321 22.3294 74.8462 21.8943C74.3713 21.4591 74.0009 20.9428 73.7573 20.3766C73.5136 19.8104 73.4019 19.2061 73.4288 18.6003C73.3895 17.9918 73.4904 17.3825 73.7254 16.8099C73.9603 16.2372 74.3243 15.7132 74.7951 15.27C75.2659 14.8268 75.8335 14.4738 76.4632 14.2324C77.0929 13.9911 77.7715 13.8667 78.4572 13.8667C79.1429 13.8667 79.8214 13.9911 80.4511 14.2324C81.0809 14.4738 81.6485 14.8268 82.1193 15.27C82.5901 15.7132 82.9541 16.2372 83.189 16.8099C83.424 17.3825 83.5249 17.9918 83.4855 18.6003C83.5191 19.2009 83.4156 19.8014 83.1815 20.3656C82.9474 20.9298 82.5874 21.4461 82.1232 21.8835C81.659 22.3209 81.1 22.6704 80.48 22.911C79.86 23.1516 79.1917 23.2783 78.5152 23.2835L78.5069 23.2541ZM79.8986 8.95415C77.1483 8.95415 74.4395 10.3606 73.4288 12.0321V3.32107L66.752 3.96906V27.7384H73.4288V25.1539C74.4395 26.8327 77.1483 28.2023 79.8986 28.2023C85.9707 28.2023 90.1707 24.0493 90.1707 18.5709C90.1707 13.0924 85.9707 8.95415 79.8986 8.95415ZM29.5985 0.552394C29.0546 0.552394 28.516 0.647625 28.0135 0.83265C27.5109 1.01768 27.0543 1.28887 26.6697 1.63075C26.2851 1.97264 25.98 2.37851 25.7718 2.8252C25.5637 3.27189 25.4565 3.75065 25.4565 4.23414C25.4565 4.71764 25.5637 5.1964 25.7718 5.64309C25.98 6.08978 26.2851 6.49565 26.6697 6.83754C27.0543 7.17942 27.5109 7.45061 28.0135 7.63564C28.516 7.82066 29.0546 7.9159 29.5985 7.9159C30.697 7.9159 31.7506 7.528 32.5273 6.83754C33.3041 6.14707 33.7405 5.21061 33.7405 4.23414C33.7405 3.25768 33.3041 2.32122 32.5273 1.63075C31.7506 0.940292 30.697 0.552394 29.5985 0.552394ZM26.2849 27.7384H32.9701V9.41069H26.2849V27.7384ZM11.6886 23.2541C11.0121 23.2489 10.3438 23.1221 9.72379 22.8816C9.10377 22.641 8.54486 22.2915 8.08061 21.8541C7.61637 21.4166 7.25638 20.9003 7.02227 20.3361C6.78816 19.7719 6.68476 19.1715 6.71828 18.5709C6.65727 17.9521 6.742 17.3289 6.96708 16.7409C7.19215 16.1529 7.55262 15.6131 8.0255 15.1558C8.49837 14.6985 9.07327 14.3339 9.71352 14.0851C10.3538 13.8364 11.0453 13.709 11.7441 13.711C12.4428 13.7131 13.1334 13.8445 13.7718 14.0971C14.4102 14.3496 14.9823 14.7176 15.4518 15.1776C15.9212 15.6377 16.2777 16.1796 16.4984 16.7689C16.7191 17.3582 16.7992 17.982 16.7336 18.6003C16.7651 19.2079 16.657 19.8147 16.416 20.3839C16.1749 20.9531 15.8059 21.4727 15.3315 21.9109C14.8571 22.3492 14.2872 22.6969 13.6566 22.9329C13.026 23.1689 12.348 23.2882 11.6638 23.2835L11.6886 23.2541ZM16.7336 12.0321C15.5572 10.0955 12.8898 8.95415 10.2224 8.95415C4.06741 8.95415 0 13.0998 0 18.5709C0 24.042 4.30765 27.9299 10.3384 27.9299C13.0472 27.9299 15.6235 26.7517 16.7584 25.0802V27.9741C16.7584 30.971 14.7537 32.2302 11.6058 32.2302C8.67329 32.2302 6.57745 31.0152 6.02242 29.1449H0.289938C0.463901 33.4083 3.82718 37.4509 11.6058 37.4509C19.6909 37.4509 23.4435 34.0195 23.4435 27.628V9.41069H16.7336V12.0321Z" fill="#00A543"/>
</svg>
